PathFileType	4	(X/Y/Z)	S01_0004_Gait_markers.trc
DataRate	CameraRate	NumFrames	NumMarkers	Units	OrigDataRate	OrigDataStartFrame	OrigNumFrames
250.000000	250.000000	4	54	mm	250.000000	200	320
Frame#	Time	HEAD_ANT			R_HEAD			L_HEAD			C7			R_BACK			L_BACK			STERNUM			R_ACROMION			R_HUM_PROX			R_HUM_ANT			R_HUM_POST			R_ELBOW_LAT			R_ELBOW_MED			R_FOREARM			R_WIRST_LAT			R_WRITS_MED			R_HAND			L_ACROMION			L_HUM_PROX			L_HUM_ANT			L_HUM_POST			L_ELBOW_LAT			L_ELBOW_MED			L_FOREARM			L_WRIST_LAT			L_WIRST_MED			L_HAND			R_ILIAC			SACRUM			L_ILIAC			R_GTROCH			R_THIGH__1			R_THIGH_2			R_THIGH_3			R_THIGH_4			R_SHANK_1			R_SHANK_2			R_SHANK_3			R_SHANK_4			R_HEEL			R_FOOT_LAT			R_FOOT_MED			L_GTROCH			L_THIGH_1			L_THIGH_2			L_THIGH_3			L_THIGH_4			L_SHANK_1			L_SHANK_2			L_SHANK_3			L_SHANK_4			L_HEEL			L_FOOT_LAT			L_FOOT_MED			
		X1	Y1	Z1	X2	Y2	Z2	X3	Y3	Z3	X4	Y4	Z4	X5	Y5	Z5	X6	Y6	Z6	X7	Y7	Z7	X8	Y8	Z8	X9	Y9	Z9	X10	Y10	Z10	X11	Y11	Z11	X12	Y12	Z12	X13	Y13	Z13	X14	Y14	Z14	X15	Y15	Z15	X16	Y16	Z16	X17	Y17	Z17	X18	Y18	Z18	X19	Y19	Z19	X20	Y20	Z20	X21	Y21	Z21	X22	Y22	Z22	X23	Y23	Z23	X24	Y24	Z24	X25	Y25	Z25	X26	Y26	Z26	X27	Y27	Z27	X28	Y28	Z28	X29	Y29	Z29	X30	Y30	Z30	X31	Y31	Z31	X32	Y32	Z32	X33	Y33	Z33	X34	Y34	Z34	X35	Y35	Z35	X36	Y36	Z36	X37	Y37	Z37	X38	Y38	Z38	X39	Y39	Z39	X40	Y40	Z40	X41	Y41	Z41	X42	Y42	Z42	X43	Y43	Z43	X44	Y44	Z44	X45	Y45	Z45	X46	Y46	Z46	X47	Y47	Z47	X48	Y48	Z48	X49	Y49	Z49	X50	Y50	Z50	X51	Y51	Z51	X52	Y52	Z52	X53	Y53	Z53	X54	Y54	Z54	

201	0.8	1281.867065429688	392.0814208984375	1746.932983398438	1222.560791015625	311.027099609375	1703.483276367188	1225.849609375	458.1291198730469	1691.502197265625	1088.853759765625	372.935546875	1527.365844726562	1014.180419921875	298.7570495605469	1334.484008789062	1013.099487304688	435.8240356445312	1332.630615234375	1268.390014648438	376.5275573730469	1363.27783203125	1174.553833007812	202.5449066162109	1479.048583984375	1149.750122070312	109.9953155517578	1319.27001953125	1210.92919921875	121.4731140136719	1233.539794921875	1093.3125	87.66739654541016	1235.808471679688	1137.986206054688	93.74867248535156	1128.58154296875	1101.197631835938	167.9211273193359	1126.748779296875	1237.196166992188	114.4776458740234	944.8922729492188	1263.233154296875	163.6278839111328	877.675537109375	1208.09423828125	106.0730667114258	856.5106201171875	1278.128051757812	112.1661224365234	788.8707275390625	1165.329345703125	541.4768676757812	1477.693969726562	1135.603393554688	629.8450927734375	1307.816162109375	1195.021362304688	629.2304077148438	1225.491333007812	1073.251708984375	649.1245727539062	1231.38134765625	1130.646240234375	652.758056640625	1123.562622070312	1078.092529296875	598.1277465820312	1125.615844726562	1223.948608398438	635.8832397460938	944.2061157226562	1250.88232421875	583.4642333984375	880.1671752929688	1204.061157226562	645.283203125	864.236572265625	1276.658813476562	639.6513671875	804.1039428710938	1155.495849609375	193.9855194091797	1076.2197265625	1033.591430664062	368.125244140625	1050.356811523438	1158.16015625	539.0700073242188	1074.943115234375	1107.05712890625	182.5697021484375	925.3419189453125	1156.316528320312	193.9776153564453	647.0888061523438	1212.52294921875	186.2703247070312	664.2843627929688	1220.2822265625	210.5868377685547	559.806396484375	1154.852294921875	208.2971649169922	564.8843383789062	1035.008911132812	201.3433990478516	417.1776123046875	1057.84228515625	211.0849609375	362.347900390625	994.1233520507812	227.2111663818359	306.5543518066406	955.0630493164062	220.8982238769531	356.8741149902344	781.1529541015625	302.5339050292969	246.8956604003906	852.6853637695312	218.53515625	101.8447036743164	901.6879272460938	304.81640625	73.78247833251953	1133.21533203125	545.3780517578125	963.5689697265625	1264.402954101562	522.1165161132812	683.550048828125	1210.229370117188	543.7463989257812	694.3165283203125	1207.39697265625	508.48095703125	592.1995239257812	1269.308227539062	495.4560546875	605.2415771484375	1239.8330078125	488.3666076660156	328.4726257324219	1182.216064453125	493.4497680664062	309.724853515625	1173.582397460938	476.6587524414062	224.8120269775391	1236.533203125	462.4624328613281	228.1002655029297	1118.669921875	402.8229675292969	41.83987426757812	1298.56982421875	465.1120300292969	19.68508720397949	1328.093017578125	355.9425354003906	29.58639526367188	
202	0.804	1287.314331054688	392.0732116699219	1747.8505859375	1228.069091796875	311.2102355957031	1704.413330078125	1231.35888671875	458.1818542480469	1692.390991210938	1093.982666015625	373.6285095214844	1528.022583007812	1019.516479492188	299.7054748535156	1335.155883789062	1018.638305664062	436.5614013671875	1333.57373046875	1273.757080078125	376.32568359375	1363.999389648438	1179.44921875	202.6338348388672	1480.022094726562	1153.9619140625	110.1470184326172	1320.215209960938	1215.145751953125	120.9089584350586	1234.380737304688	1097.1953125	88.05978393554688	1236.951049804688	1141.926147460938	93.58528137207031	1129.575927734375	1105.317260742188	167.7777099609375	1127.60205078125	1241.28125	113.7691268920898	945.8944702148438	1267.413818359375	162.7384338378906	878.4876098632812	1212.067260742188	105.2690811157227	857.431396484375	1282.088500976562	110.8518371582031	789.9000854492188	1171.133544921875	541.6873168945312	1478.508911132812	1141.664794921875	630.3135986328125	1308.793823242188	1201.271484375	629.999755859375	1226.716796875	1079.429321289062	649.5662841796875	1232.246337890625	1137.278564453125	653.4328002929688	1124.510498046875	1086.77978515625	598.6187133789062	1125.798950195312	1231.2041015625	636.0371704101562	945.54345703125	1257.738037109375	582.8370971679688	881.5984497070312	1211.397094726562	645.531005859375	865.57421875	1284.16796875	639.4566650390625	805.5072021484375	1161.918823242188	195.0381164550781	1077.496826171875	1039.223388671875	368.0458679199219	1051.291625976562	1163.773559570312	539.5170288085938	1076.124877929688	1113.13330078125	182.4966888427734	926.32958984375	1164.900634765625	194.4671020507812	647.8690185546875	1220.722778320312	186.9321441650391	665.5872802734375	1229.729736328125	210.8498382568359	561.216796875	1163.947265625	208.3269958496094	566.01123046875	1045.142700195312	201.5921936035156	417.3327941894531	1068.323608398438	211.2560882568359	362.7208862304688	1004.996643066406	227.8206176757812	306.1667785644531	965.4892578125	220.9165954589844	356.6592407226562	792.0033569335938	302.4759521484375	244.2229614257812	866.6924438476562	218.1862182617188	100.8016510009766	916.3632202148438	304.3515014648438	73.59883880615234	1138.514892578125	545.6590576171875	964.03955078125	1267.28076171875	522.212890625	683.3771362304688	1213.260498046875	543.9406127929688	694.7235717773438	1209.35498046875	508.3344421386719	592.5405883789062	1271.86962890625	495.2549743652344	604.8607788085938	1240.508544921875	488.4280700683594	328.4537658691406	1182.6640625	494.1791076660156	310.2805480957031	1173.9091796875	476.5309448242188	225.0115356445312	1236.902954101562	462.6278076171875	228.1295013427734	1118.780029296875	402.7875366210938	42.14170837402344	1298.54345703125	465.2504577636719	19.65203857421875	1328.207641601562	355.9575805664062	29.54872131347656	
203	0.8080000000000001	1292.968505859375	392.2442932128906	1748.526733398438	1233.640625	311.2625122070312	1705.201293945312	1236.768798828125	458.3272094726562	1693.147338867188	1099.37451171875	373.8970947265625	1528.998779296875	1024.796997070312	300.2655029296875	1335.912475585938	1024.741088867188	437.3385620117188	1334.7685546875	1278.948608398438	376.1021423339844	1364.931640625	1184.37939453125	202.6628265380859	1480.934448242188	1157.989868164062	110.2174301147461	1321.072631835938	1219.259887695312	120.1747741699219	1235.14111328125	1100.156372070312	88.66702270507812	1237.730834960938	1145.941162109375	93.37343597412109	1130.615966796875	1109.855102539062	167.7906646728516	1128.580810546875	1245.317993164062	112.9328079223633	946.6991577148438	1271.49951171875	161.7257690429688	879.3394165039062	1216.013793945312	104.5499725341797	858.3358154296875	1286.07275390625	109.6205825805664	790.7573852539062	1176.888549804688	541.8853149414062	1479.600830078125	1147.729614257812	630.7213134765625	1309.82763671875	1207.673583984375	630.3905029296875	1227.958251953125	1085.694091796875	649.8438720703125	1233.091552734375	1143.6875	653.9299926757812	1125.901733398438	1091.0126953125	599.4676513671875	1127.523071289062	1238.191528320312	636.2183227539062	946.98388671875	1264.861206054688	582.7119750976562	883.033935546875	1218.991333007812	645.5340576171875	866.79541015625	1291.746215820312	639.2413940429688	807.046875	1167.568481445312	195.6443328857422	1078.76220703125	1044.740356445312	368.2886047363281	1052.301391601562	1169.2041015625	539.6185302734375	1077.054809570312	1119.194946289062	182.3731994628906	927.37353515625	1173.294555664062	194.3101654052734	648.8043823242188	1229.000732421875	187.4014282226562	666.6439208984375	1238.640747070312	211.3874664306641	562.7420043945312	1172.651245117188	208.949462890625	566.785888671875	1055.115600585938	202.0098571777344	417.3244018554688	1078.69775390625	211.5467529296875	362.910400390625	1015.826477050781	227.4458618164062	306.0263671875	976.11328125	220.9665069580078	356.5636901855469	803.17431640625	302.2368469238281	241.3211822509766	880.9479370117188	218.0032043457031	99.73130035400391	931.0964965820312	304.0789794921875	73.48486328125	1142.486206054688	546.6734619140625	964.3402709960938	1270.175170898438	522.5346069335938	683.2005615234375	1216.225341796875	543.8931274414062	694.8344116210938	1211.709106445312	508.3355407714844	592.7688598632812	1273.957763671875	495.673095703125	604.6744384765625	1241.109985351562	488.5247497558594	328.5066528320312	1183.229248046875	494.2870788574219	310.5790710449219	1174.16650390625	476.2875671386719	225.4265594482422	1237.636352539062	463.21630859375	227.7831878662109	1118.881469726562	402.7674255371094	42.507080078125	1298.604736328125	465.2443542480469	19.5946102142334	1328.287475585938	355.9198608398438	29.50694465637207	
204	0.8120000000000001	1298.445922851562	392.315673828125	1749.261474609375	1239.164794921875	311.3101196289062	1705.897827148438	1242.460083007812	458.5054016113281	1693.922973632812	1105.130615234375	374.1175537109375	1530.007690429688	1030.1708984375	301.1438598632812	1336.5771484375	1030.173095703125	438.0906677246094	1335.767211914062	1284.3173828125	376.0131225585938	1365.869995117188	1189.304931640625	202.8013305664062	1481.798706054688	1162.21435546875	110.2139739990234	1322.099365234375	1223.434448242188	119.5389251708984	1236.063232421875	1103.894165039062	89.28508758544922	1238.600219726562	1149.904296875	93.1812744140625	1131.601806640625	1114.21630859375	167.7442474365234	1129.668579101562	1249.365112304688	111.9845733642578	947.5350341796875	1275.801879882812	160.6559295654297	880.22314453125	1219.962524414062	103.7534637451172	859.3474731445312	1290.061645507812	108.3567199707031	791.6253662109375	1182.630249023438	541.9562377929688	1480.655517578125	1153.87451171875	631.1536254882812	1310.84375	1213.953125	630.2069091796875	1228.838134765625	1091.95361328125	650.5805053710938	1233.968872070312	1150.341674804688	654.5653076171875	1126.68798828125	1097.397216796875	600.2188110351562	1128.241577148438	1245.360473632812	636.394287109375	948.1788940429688	1271.992065429688	582.6447143554688	884.5199584960938	1226.32275390625	645.7936401367188	868.0625610351562	1299.419555664062	638.8822631835938	808.4348754882812	1172.791748046875	196.4984130859375	1079.923217773438	1049.52001953125	369.0044860839844	1053.46044921875	1174.588745117188	540.0032958984375	1078.032104492188	1125.16845703125	182.3655700683594	928.4108276367188	1181.709716796875	194.7748260498047	649.6709594726562	1237.449340820312	187.3327941894531	668.1773681640625	1247.016845703125	211.9643402099609	563.5723266601562	1181.714965820312	209.0230712890625	567.7665405273438	1065.130249023438	202.1239776611328	417.4101867675781	1089.250122070312	211.9120941162109	363.0043029785156	1026.746459960938	228.1105651855469	305.6049194335938	986.7532348632812	220.6902618408203	355.7331237792969	814.4705200195312	302.3013916015625	238.3351593017578	895.475830078125	217.6643981933594	98.52839660644531	945.8008422851562	304.0012817382812	73.23192596435547	1147.316772460938	547.1176147460938	965.0684204101562	1273.14453125	522.5492553710938	683.0322265625	1219.037353515625	544.2074584960938	694.9730224609375	1213.739135742188	508.7735595703125	593.1177368164062	1276.045654296875	495.9429931640625	604.4388427734375	1241.614501953125	488.566650390625	328.5926818847656	1183.7578125	494.3135375976562	310.7854309082031	1174.447631835938	476.2888793945312	225.7637329101562	1237.940185546875	463.2254943847656	227.8762512207031	1118.995483398438	402.7745971679688	42.82944488525391	1298.640258789062	465.29296875	19.59617233276367	1328.401123046875	355.8921813964844	29.47203254699707	
